<svg width="101" height="42" viewBox="0 0 101 42" fill="none" xmlns="http://www.w3.org/2000/svg">
<path d="M35.7915 6.01581C36.4922 6.01581 37.0409 6.22736 37.4376 6.65045C37.8408 7.07355 38.0425 7.652 38.0425 8.3858V11.6284H36.0989V8.64362C36.0989 8.34613 36.0162 8.11476 35.851 7.94948C35.6857 7.78421 35.4609 7.70158 35.1767 7.70158C34.8924 7.70158 34.6676 7.78421 34.5024 7.94948C34.3371 8.11476 34.2545 8.34613 34.2545 8.64362V11.6284H32.3109V8.64362C32.3109 8.34613 32.2282 8.11476 32.063 7.94948C31.9043 7.78421 31.6828 7.70158 31.3986 7.70158C31.1077 7.70158 30.8796 7.78421 30.7143 7.94948C30.5491 8.11476 30.4664 8.34613 30.4664 8.64362V11.6284H28.5229V6.06539H30.4664V6.7992C30.6383 6.56121 30.8598 6.3728 31.1308 6.23397C31.4085 6.08853 31.7258 6.01581 32.0828 6.01581C32.4927 6.01581 32.8563 6.10506 33.1736 6.28355C33.4975 6.46204 33.752 6.71326 33.9371 7.03719C34.1355 6.73309 34.3966 6.48849 34.7205 6.30338C35.0444 6.11167 35.4014 6.01581 35.7915 6.01581ZM38.79 8.84195C38.79 8.2668 38.8925 7.76438 39.0974 7.33468C39.3089 6.90497 39.5932 6.57443 39.9502 6.34305C40.3138 6.11167 40.717 5.99598 41.16 5.99598C41.5434 5.99598 41.8739 6.072 42.1516 6.22405C42.4293 6.3761 42.6441 6.58104 42.7962 6.83886V6.06539H44.7397V11.6284H42.7962V10.8549C42.6441 11.1128 42.4259 11.3177 42.1417 11.4698C41.864 11.6218 41.5368 11.6978 41.16 11.6978C40.717 11.6978 40.3138 11.5821 39.9502 11.3508C39.5932 11.1194 39.3089 10.7888 39.0974 10.3591C38.8925 9.92282 38.79 9.41709 38.79 8.84195ZM42.7962 8.84195C42.7962 8.48496 42.697 8.204 42.4987 7.99907C42.307 7.79413 42.069 7.69166 41.7847 7.69166C41.4938 7.69166 41.2525 7.79413 41.0608 7.99907C40.8691 8.19739 40.7732 8.47835 40.7732 8.84195C40.7732 9.19893 40.8691 9.4832 41.0608 9.69475C41.2525 9.89968 41.4938 10.0022 41.7847 10.0022C42.069 10.0022 42.307 9.89968 42.4987 9.69475C42.697 9.48981 42.7962 9.20554 42.7962 8.84195ZM45.5299 8.84195C45.5299 8.2668 45.6324 7.76438 45.8373 7.33468C46.0489 6.90497 46.3365 6.57443 46.7001 6.34305C47.0637 6.11167 47.4669 5.99598 47.9098 5.99598C48.2668 5.99598 48.5842 6.072 48.8618 6.22405C49.1461 6.36949 49.3675 6.57112 49.5262 6.82895V4.29038H51.4797V11.6284H49.5262V10.8549C49.3741 11.1128 49.1593 11.3177 48.8816 11.4698C48.604 11.6218 48.2767 11.6978 47.8999 11.6978C47.457 11.6978 47.0537 11.5821 46.6901 11.3508C46.3332 11.1194 46.0489 10.7888 45.8373 10.3591C45.6324 9.92282 45.5299 9.41709 45.5299 8.84195ZM49.5361 8.84195C49.5361 8.48496 49.437 8.204 49.2386 7.99907C49.0469 7.79413 48.8089 7.69166 48.5247 7.69166C48.2338 7.69166 47.9925 7.79413 47.8008 7.99907C47.6091 8.19739 47.5132 8.47835 47.5132 8.84195C47.5132 9.19893 47.6091 9.4832 47.8008 9.69475C47.9925 9.89968 48.2338 10.0022 48.5247 10.0022C48.8089 10.0022 49.0469 9.89968 49.2386 9.69475C49.437 9.48981 49.5361 9.20554 49.5361 8.84195ZM57.9023 8.78245C57.9023 8.9345 57.8924 9.08655 57.8726 9.2386H54.1937C54.2135 9.5427 54.2961 9.77077 54.4416 9.92282C54.5936 10.0683 54.7853 10.141 55.0167 10.141C55.3406 10.141 55.572 9.99554 55.7108 9.70466H57.7833C57.6974 10.0881 57.5288 10.4319 57.2776 10.736C57.033 11.0334 56.7223 11.2681 56.3455 11.44C55.9687 11.6119 55.5522 11.6978 55.096 11.6978C54.5473 11.6978 54.0581 11.5821 53.6284 11.3508C53.2053 11.1194 52.8715 10.7888 52.6269 10.3591C52.3889 9.92943 52.2699 9.4237 52.2699 8.84195C52.2699 8.26019 52.3889 7.75777 52.6269 7.33468C52.8649 6.90497 53.1954 6.57443 53.6185 6.34305C54.0482 6.11167 54.5407 5.99598 55.096 5.99598C55.6447 5.99598 56.1306 6.10836 56.5537 6.33313C56.9768 6.5579 57.3074 6.88183 57.5454 7.30493C57.7833 7.72141 57.9023 8.21392 57.9023 8.78245ZM55.9191 8.29655C55.9191 8.05856 55.8398 7.87346 55.6811 7.74124C55.5224 7.60241 55.3241 7.533 55.0861 7.533C54.8481 7.533 54.6531 7.59911 54.5011 7.73133C54.349 7.85693 54.2498 8.04534 54.2036 8.29655H55.9191ZM62.5394 6.83886C62.6914 6.57443 62.9063 6.36949 63.1839 6.22405C63.4616 6.072 63.7888 5.99598 64.1656 5.99598C64.6086 5.99598 65.0085 6.11167 65.3655 6.34305C65.7291 6.57443 66.0134 6.90497 66.2183 7.33468C66.4298 7.76438 66.5356 8.2668 66.5356 8.84195C66.5356 9.41709 66.4298 9.92282 66.2183 10.3591C66.0134 10.7888 65.7291 11.1194 65.3655 11.3508C65.0085 11.5821 64.6086 11.6978 64.1656 11.6978C63.7888 11.6978 63.4616 11.6251 63.1839 11.4797C62.9063 11.3276 62.6914 11.1194 62.5394 10.8549V11.6284H60.5958V4.29038H62.5394V6.83886ZM64.5623 8.84195C64.5623 8.47835 64.4631 8.19739 64.2648 7.99907C64.0731 7.79413 63.8351 7.69166 63.5508 7.69166C63.2665 7.69166 63.0253 7.79413 62.8269 7.99907C62.6352 8.204 62.5394 8.48496 62.5394 8.84195C62.5394 9.20554 62.6352 9.48981 62.8269 9.69475C63.0253 9.89968 63.2665 10.0022 63.5508 10.0022C63.8351 10.0022 64.0731 9.89968 64.2648 9.69475C64.4631 9.4832 64.5623 9.19893 64.5623 8.84195ZM73.3252 6.06539L69.795 14.2761H67.6828L69.0116 11.3904L66.7308 6.06539H68.8926L70.0627 9.21877L71.1932 6.06539H73.3252Z" fill="white"/>
<path d="M17.6902 41.2399H12.2407C11.9503 40.5316 11.6605 39.8246 11.3706 39.1175C9.86245 35.4386 8.35363 31.7597 6.8497 28.0789C6.82102 28.0089 6.8198 27.9096 6.84543 27.839C7.63736 25.6807 8.43478 23.5236 9.23098 21.3672C9.24745 21.3221 9.26758 21.2776 9.30236 21.1936C12.1052 27.8932 14.8941 34.5568 17.6902 41.2393V41.2399Z" fill="#FFD568"/>
<path d="M0.914613 41.2399H1.47897C4.17629 34.7931 6.86689 28.3633 9.57031 21.9019C9.50503 21.7234 9.43914 21.5456 9.37325 21.3672C9.35677 21.3221 9.33664 21.2783 9.30186 21.1936C6.49899 27.8932 3.71077 34.5574 0.914613 41.2399Z" fill="#FFD568"/>
<g clip-path="url(#clip0_622_705)">
<path d="M1.46051 41.2399H2.02487C4.72218 34.7931 7.41279 28.3633 10.1162 21.9019C10.0509 21.7234 9.98504 21.5456 9.91914 21.3672C9.90267 21.3221 9.88254 21.2783 9.84776 21.1936C7.04489 27.8932 4.25667 34.5574 1.46051 41.2399Z" fill="#FFD568"/>
</g>
<path d="M26.5122 41.242H21.8057V21.1968H26.5122V41.242Z" fill="#FFD568"/>
<path d="M30.1139 31.2091C30.7711 31.3188 31.4346 31.3992 32.0837 31.5458C33.2448 31.8083 34.3173 32.271 35.2594 33.0242C35.9647 33.5885 36.3825 34.3168 36.6194 35.1667C36.8532 36.0085 36.9062 36.8734 36.9337 37.7401C36.958 38.5183 36.9555 39.2977 37.0035 40.0747C37.026 40.437 37.1189 40.7999 37.2174 41.1516C37.2916 41.4172 37.4886 41.5999 37.7667 41.7103C37.6713 41.7221 37.5766 41.7383 37.4812 41.7439C36.5302 41.8013 35.5968 41.747 34.6908 41.4041C33.5896 40.9869 32.9704 40.1801 32.726 39.0577C32.5763 38.3705 32.5308 37.6715 32.5071 36.9707C32.4865 36.3639 32.4784 35.756 32.4429 35.1499C32.4117 34.6055 32.3437 34.0618 32.1311 33.553C31.9048 33.0111 31.4888 32.6152 31.0586 32.236C30.546 31.7846 29.9649 31.4504 29.2958 31.2452C29.3176 31.2259 29.3289 31.2072 29.3438 31.2034C30.0316 31.0239 30.5186 30.5811 30.8952 30.0037C31.3648 29.2842 31.5805 28.4742 31.6865 27.633C31.8 26.7338 31.8193 25.8322 31.6971 24.9312C31.5967 24.1941 31.3928 23.4876 30.995 22.8529C30.4382 21.9643 29.6487 21.4012 28.6074 21.1936C29.0526 21.2373 29.4997 21.2659 29.9424 21.3283C31.1527 21.4979 32.3256 21.7978 33.4038 22.3946C34.2886 22.884 35.005 23.5419 35.4253 24.4822C35.7415 25.1906 35.8312 25.9369 35.7683 26.7039C35.7271 27.2021 35.6392 27.6904 35.4515 28.158C35.0468 29.1676 34.3378 29.8984 33.3826 30.3947C32.4335 30.8879 31.4115 31.1243 30.3502 31.2034C30.2692 31.2097 30.1881 31.2215 30.1071 31.2309C30.1096 31.2234 30.112 31.2165 30.1145 31.2091H30.1139Z" fill="#FFD568"/>
<path d="M49.2316 21.196C49.2226 21.2199 49.2214 21.2527 49.2047 21.2665C48.8205 21.5861 48.5744 22.0067 48.3617 22.4464C47.8712 23.4578 47.6125 24.5392 47.4321 25.6408C47.0205 28.1554 46.9852 30.6884 47.0814 33.2263C47.1346 34.638 47.269 36.0431 47.5522 37.4298C47.7607 38.4508 48.0385 39.449 48.5636 40.3619C48.7351 40.66 48.9215 40.9474 49.1915 41.1702C49.2124 41.1875 49.2178 41.2234 49.2304 41.2509L49.2316 41.2521C48.9143 41.1105 48.5929 40.9767 48.2799 40.8267C46.7307 40.0841 45.371 39.0864 44.2461 37.7852C43.1235 36.487 42.3767 34.9935 42.0685 33.304C41.7208 31.3982 41.8504 29.5223 42.5512 27.7013C43.016 26.4939 43.6982 25.4228 44.5699 24.4699C45.8555 23.0647 47.3933 22.0157 49.1306 21.2492C49.1664 21.2336 49.1999 21.2121 49.2345 21.1936L49.2334 21.1966L49.2316 21.196Z" fill="#FFD568"/>
<path d="M54.3095 21.1978C55.3215 21.6261 56.269 22.1686 57.1538 22.8198C58.5309 23.833 59.669 25.0613 60.4892 26.568C61.0335 27.5675 61.3884 28.6351 61.5544 29.7624C61.8179 31.5487 61.6626 33.2944 61.0096 34.9833C60.5544 36.1614 59.8757 37.2039 59.0106 38.1221C57.7279 39.4831 56.1997 40.4849 54.4696 41.1851C54.4128 41.2078 54.3477 41.2108 54.2868 41.2234L54.2832 41.2275C54.4582 41.0465 54.6578 40.884 54.8036 40.6821C55.2707 40.0321 55.5396 39.2895 55.763 38.5278C56.0743 37.4656 56.2398 36.3765 56.3604 35.279C56.5683 33.3816 56.5905 31.4782 56.5301 29.5742C56.4763 27.8835 56.3288 26.2006 55.9357 24.5493C55.7284 23.6777 55.4661 22.8227 54.9971 22.0473C54.8191 21.7528 54.6196 21.4744 54.3453 21.2587C54.3298 21.2461 54.3232 21.2217 54.3125 21.2031L54.3095 21.1995V21.1978Z" fill="#FFD568"/>
<path d="M49.2333 21.1936C49.2364 21.1973 49.2388 21.2022 49.2425 21.2035C49.245 21.2041 49.2493 21.1998 49.2524 21.1979C49.2456 21.1979 49.2388 21.1973 49.2314 21.1967L49.2327 21.1936H49.2333Z" fill="#FFD568"/>
<path d="M49.2295 41.2503C49.2387 41.2485 49.248 41.246 49.2578 41.2441C49.2486 41.2466 49.24 41.2491 49.2307 41.2521L49.2295 41.2509V41.2503Z" fill="#FFD568"/>
<path d="M54.3127 21.2014L54.3018 21.2032C54.3018 21.2032 54.3097 21.1984 54.3097 21.1978L54.3127 21.2008V21.2014Z" fill="#FFD568"/>
<path d="M54.2869 41.2222C54.2869 41.2258 54.2869 41.2301 54.2869 41.2337C54.2856 41.2313 54.2844 41.2289 54.2832 41.2264L54.2869 41.2222Z" fill="#FFD568"/>
<path d="M82.5662 41.2399H77.1167C76.8262 40.5316 76.5364 39.8246 76.2466 39.1175C74.7384 35.4386 73.2296 31.7597 71.7257 28.0789C71.697 28.0089 71.6958 27.9096 71.7214 27.839C72.5133 25.6807 73.3108 23.5236 74.107 21.3672C74.1234 21.3221 74.1436 21.2776 74.1783 21.1936C76.9812 27.8932 79.77 34.5568 82.5662 41.2393V41.2399Z" fill="#FFD568"/>
<path d="M65.7906 41.2399H66.3549C69.0523 34.7931 71.7429 28.3633 74.4463 21.9019C74.381 21.7234 74.3151 21.5456 74.2492 21.3672C74.2327 21.3221 74.2126 21.2783 74.1778 21.1936C71.375 27.8932 68.5867 34.5574 65.7906 41.2399Z" fill="#FFD568"/>
<g clip-path="url(#clip1_622_705)">
<path d="M66.3365 41.2399H66.9008C69.5982 34.7931 72.2888 28.3633 74.9922 21.9019C74.9269 21.7234 74.861 21.5456 74.7951 21.3672C74.7786 21.3221 74.7585 21.2783 74.7237 21.1936C71.9209 27.8932 69.1326 34.5574 66.3365 41.2399Z" fill="#FFD568"/>
</g>
<path d="M86.6924 21.1967C86.8396 21.1967 86.9693 21.1967 87.0983 21.1967C88.3186 21.1967 89.5396 21.1986 90.7598 21.1936C90.8783 21.1936 90.9469 21.2335 91.0142 21.3264C94.0877 25.5715 97.1637 29.8154 100.237 34.0605C100.285 34.1273 100.326 34.2177 100.326 34.2969C100.331 36.7312 100.33 39.1655 100.33 41.5999V41.7265C100.269 41.6504 100.232 41.6067 100.198 41.5618C97.5272 38.0575 94.8559 34.5538 92.1853 31.0488C90.3795 28.6793 88.5743 26.3105 86.771 23.9391C86.7273 23.8811 86.6856 23.8025 86.6856 23.7333C86.6799 22.9233 86.6818 22.114 86.6824 21.304C86.6824 21.274 86.6874 21.2441 86.6924 21.1955V21.1967Z" fill="#FFD568"/>
<rect x="86.6816" y="22.9468" width="1.14529" height="18.3278" fill="#FFD568"/>
<rect x="99.1846" y="21.1936" width="1.14529" height="18.3278" fill="#FFD568"/>
<defs>
<clipPath id="clip0_622_705">
<rect width="8.66363" height="17.0519" fill="white" transform="translate(1.4502 24.2002)"/>
</clipPath>
<clipPath id="clip1_622_705">
<rect width="8.66363" height="17.0519" fill="white" transform="translate(66.3262 24.2002)"/>
</clipPath>
</defs>
</svg>
